<?xml version="1.0" encoding="utf-8"?>
<!-- Generator: Adobe Illustrator 16.0.0, SVG Export Plug-In . SVG Version: 6.00 Build 0)  -->
<!DOCTYPE svg PUBLIC "-//W3C//DTD SVG 1.1//EN" "http://www.w3.org/Graphics/SVG/1.1/DTD/svg11.dtd">
<svg version="1.1" xmlns="http://www.w3.org/2000/svg" xmlns:xlink="http://www.w3.org/1999/xlink" x="0px" y="0px" width="135px"
	 height="40px" viewBox="0 0 135 40" enable-background="new 0 0 135 40" xml:space="preserve">
<g id="BG">
	<g>
		<rect x="-0.509" y="-7.311" fill-rule="evenodd" clip-rule="evenodd" fill="#2C3E50" width="138.509" height="54.127"/>
	</g>
</g>
<g id="TEXT">
	<g>
		
			<image overflow="visible" opacity="0.57" width="28" height="32" xlink:href="A3163646.png"  transform="matrix(1 0 0 1 30.5 8.5)">
		</image>
		<g>
			<path fill="#FFFFFF" d="M46.547,28.234c-0.073,0.067-0.191,0.121-0.352,0.166c-0.307,0.074-0.705,0.146-1.195,0.219
				c-0.491,0.073-1.065,0.11-1.723,0.11c-1.551,0-2.791-0.475-3.721-1.427c-0.928-0.95-1.393-2.326-1.393-4.125v-1.844
				c0-1.799,0.465-3.174,1.393-4.125c0.93-0.951,2.17-1.426,3.721-1.426c0.657,0,1.231,0.037,1.723,0.11
				c0.49,0.073,0.889,0.146,1.195,0.22c0.16,0.043,0.278,0.099,0.352,0.164c0.073,0.066,0.109,0.179,0.109,0.341v1.952
				c0,0.117-0.04,0.209-0.121,0.274c-0.08,0.066-0.18,0.099-0.296,0.099h-0.044c-0.41-0.044-0.801-0.08-1.175-0.11
				c-0.372-0.028-0.874-0.043-1.503-0.043c-0.249,0-0.482,0.041-0.702,0.121s-0.409,0.219-0.57,0.417
				c-0.161,0.197-0.289,0.461-0.385,0.791c-0.094,0.329-0.142,0.734-0.142,1.217v1.844c0,0.482,0.048,0.888,0.142,1.218
				c0.096,0.33,0.224,0.592,0.385,0.789c0.161,0.199,0.351,0.337,0.57,0.417c0.22,0.081,0.453,0.121,0.702,0.121
				c0.629,0,1.131-0.014,1.503-0.044c0.374-0.029,0.765-0.066,1.175-0.11h0.044c0.116,0,0.216,0.033,0.296,0.099
				c0.081,0.066,0.121,0.158,0.121,0.275v1.952C46.656,28.056,46.62,28.169,46.547,28.234z"/>
		</g>
	</g>
	<g>
		
			<image overflow="visible" opacity="0.57" width="30" height="32" xlink:href="A316364A.png"  transform="matrix(1 0 0 1 39.5 8.5)">
		</image>
		<g>
			<path fill="#FFFFFF" d="M57.7,25.393c-0.241,0.703-0.593,1.299-1.053,1.789c-0.462,0.49-1.03,0.871-1.712,1.142
				c-0.68,0.271-1.466,0.406-2.359,0.406c-0.893,0-1.678-0.135-2.358-0.406c-0.681-0.271-1.254-0.651-1.723-1.142
				c-0.468-0.49-0.823-1.086-1.064-1.789c-0.241-0.702-0.361-1.492-0.361-2.37v-1.536c0-0.877,0.12-1.668,0.361-2.37
				c0.241-0.702,0.597-1.298,1.064-1.788c0.469-0.49,1.042-0.871,1.723-1.141c0.681-0.271,1.466-0.406,2.358-0.406
				c0.894,0,1.68,0.135,2.359,0.406c0.682,0.27,1.25,0.651,1.712,1.141c0.46,0.49,0.812,1.086,1.053,1.788
				c0.242,0.702,0.363,1.493,0.363,2.37v1.536C58.063,23.901,57.942,24.691,57.7,25.393z M54.508,21.487
				c0-1.784-0.644-2.678-1.932-2.678c-0.636,0-1.12,0.224-1.453,0.67c-0.334,0.446-0.5,1.116-0.5,2.008v1.536
				c0,0.893,0.166,1.565,0.5,2.019c0.333,0.454,0.817,0.681,1.453,0.681c1.288,0,1.932-0.899,1.932-2.699V21.487z"/>
		</g>
	</g>
	<g>
		
			<image overflow="visible" opacity="0.57" width="30" height="32" xlink:href="A316364D.png"  transform="matrix(1 0 0 1 51.5 8.5)">
		</image>
		<g>
			<path fill="#FFFFFF" d="M69.566,28.39c-0.096,0.095-0.2,0.142-0.317,0.142h-2.655c-0.117,0-0.219-0.047-0.308-0.142
				c-0.089-0.095-0.132-0.201-0.132-0.318V20.78c0-0.379-0.021-0.701-0.065-0.963c-0.044-0.263-0.124-0.474-0.241-0.635
				c-0.118-0.161-0.282-0.274-0.494-0.34c-0.212-0.065-0.486-0.099-0.823-0.099c-0.32,0-0.65,0.065-0.987,0.197
				c-0.337,0.131-0.694,0.299-1.074,0.503v8.627c0,0.117-0.045,0.223-0.133,0.318c-0.087,0.095-0.189,0.142-0.307,0.142h-2.654
				c-0.118,0-0.225-0.047-0.319-0.142c-0.095-0.096-0.143-0.202-0.143-0.319V16.396c0-0.117,0.045-0.22,0.132-0.308
				s0.189-0.131,0.307-0.131h2.458c0.117,0,0.22,0.044,0.309,0.133c0.087,0.088,0.131,0.192,0.131,0.31v0.531
				c0.6-0.427,1.17-0.726,1.711-0.895c0.541-0.169,1.163-0.255,1.866-0.255c0.79,0,1.437,0.128,1.941,0.384
				c0.505,0.256,0.899,0.611,1.185,1.064c0.286,0.453,0.483,0.984,0.593,1.591c0.109,0.607,0.163,1.254,0.163,1.942v7.307
				C69.708,28.188,69.663,28.294,69.566,28.39z"/>
		</g>
	</g>
	<g>
		
			<image overflow="visible" opacity="0.57" width="27" height="32" xlink:href="A316364E.png"  transform="matrix(1 0 0 1 63.5 8.5)">
		</image>
		<g>
			<path fill="#FFFFFF" d="M78.922,28.234c-0.072,0.067-0.189,0.121-0.35,0.166c-0.309,0.074-0.707,0.146-1.197,0.219
				c-0.49,0.073-1.065,0.11-1.723,0.11c-1.55,0-2.79-0.475-3.72-1.427c-0.929-0.95-1.394-2.326-1.394-4.125v-1.844
				c0-1.799,0.465-3.174,1.394-4.125c0.93-0.951,2.17-1.426,3.72-1.426c0.657,0,1.232,0.037,1.723,0.11s0.889,0.146,1.197,0.22
				c0.16,0.043,0.277,0.099,0.35,0.164c0.074,0.066,0.11,0.179,0.11,0.341v1.952c0,0.117-0.042,0.209-0.12,0.274
				c-0.082,0.066-0.18,0.099-0.297,0.099h-0.043c-0.41-0.044-0.803-0.08-1.176-0.11c-0.372-0.028-0.874-0.043-1.502-0.043
				c-0.25,0-0.483,0.041-0.704,0.121c-0.219,0.08-0.408,0.219-0.57,0.417c-0.16,0.197-0.288,0.461-0.384,0.791
				c-0.095,0.329-0.142,0.734-0.142,1.217v1.844c0,0.482,0.047,0.888,0.142,1.218c0.096,0.33,0.224,0.592,0.384,0.789
				c0.162,0.199,0.352,0.337,0.57,0.417c0.221,0.081,0.454,0.121,0.704,0.121c0.628,0,1.13-0.014,1.502-0.044
				c0.373-0.029,0.766-0.066,1.176-0.11h0.043c0.117,0,0.215,0.033,0.297,0.099c0.078,0.066,0.12,0.158,0.12,0.275v1.952
				C79.032,28.056,78.996,28.169,78.922,28.234z"/>
		</g>
	</g>
	<g>
		
			<image overflow="visible" opacity="0.57" width="26" height="32" xlink:href="A316364C.png"  transform="matrix(1 0 0 1 72.5 8.5)">
		</image>
		<g>
			<path fill="#FFFFFF" d="M86.775,18.612c-0.057,0.088-0.139,0.132-0.24,0.132h-0.176c-0.541,0-1.047,0.073-1.514,0.219
				c-0.469,0.146-0.908,0.329-1.317,0.547v8.562c0,0.117-0.043,0.223-0.132,0.318c-0.088,0.095-0.189,0.142-0.308,0.142h-2.654
				c-0.118,0-0.224-0.047-0.318-0.142c-0.096-0.096-0.144-0.202-0.144-0.319V16.396c0-0.117,0.045-0.22,0.132-0.308
				c0.089-0.088,0.19-0.131,0.308-0.131h2.61c0.118,0,0.221,0.044,0.31,0.133c0.088,0.088,0.131,0.192,0.131,0.31v0.443
				c0.409-0.339,0.874-0.601,1.394-0.785c0.518-0.184,1.042-0.276,1.568-0.276c0.116,0,0.22,0.044,0.308,0.132
				c0.087,0.089,0.131,0.192,0.131,0.31v2.1C86.863,18.427,86.835,18.523,86.775,18.612z"/>
		</g>
	</g>
	<g>
		
			<image overflow="visible" opacity="0.57" width="27" height="35" xlink:href="A316364B.png"  transform="matrix(1 0 0 1 80.5 5.5)">
		</image>
		<g>
			<path fill="#FFFFFF" d="M95.167,28.555c-0.337,0.058-0.628,0.102-0.878,0.131c-0.248,0.029-0.534,0.043-0.855,0.043
				c-0.598,0-1.125-0.052-1.582-0.154c-0.458-0.102-0.839-0.289-1.145-0.56c-0.306-0.271-0.539-0.65-0.698-1.141
				c-0.16-0.491-0.241-1.123-0.241-1.898v-6.364l-1.755-0.285c-0.115-0.029-0.224-0.084-0.318-0.165s-0.142-0.18-0.142-0.296v-1.448
				c0-0.117,0.047-0.224,0.142-0.318c0.095-0.095,0.203-0.143,0.318-0.143h1.755v-1.8c0-0.117,0.043-0.212,0.132-0.285
				c0.088-0.074,0.188-0.125,0.305-0.154l2.662-0.461h0.065c0.117,0,0.211,0.034,0.283,0.099s0.11,0.157,0.11,0.275v2.326h1.799
				c0.117,0,0.219,0.043,0.306,0.132c0.089,0.088,0.133,0.192,0.133,0.31v1.792c0,0.119-0.044,0.221-0.133,0.31
				c-0.087,0.088-0.188,0.132-0.306,0.132h-1.799v6.386c0,0.438,0.035,0.721,0.108,0.845c0.073,0.125,0.277,0.187,0.614,0.187h1.076
				c0.306,0,0.46,0.124,0.46,0.369v1.698C95.584,28.367,95.444,28.512,95.167,28.555z"/>
		</g>
	</g>
	<g>
		
			<image overflow="visible" opacity="0.57" width="36" height="32" xlink:href="A3163645.png"  transform="matrix(1 0 0 1 89.5 8.5)">
		</image>
		<g>
			<path fill="#48B576" d="M113.853,28.39c-0.095,0.095-0.201,0.142-0.317,0.142h-2.655c-0.118,0-0.221-0.048-0.309-0.143
				c-0.087-0.095-0.131-0.202-0.131-0.319v-7.5c0-0.704-0.095-1.183-0.284-1.44c-0.191-0.256-0.543-0.385-1.055-0.385
				c-0.189,0-0.435,0.026-0.735,0.077c-0.301,0.052-0.618,0.158-0.954,0.318c0.044,0.44,0.066,0.917,0.066,1.43v7.5
				c0,0.118-0.044,0.224-0.133,0.319c-0.088,0.095-0.189,0.143-0.306,0.143h-2.655c-0.119,0-0.226-0.048-0.319-0.143
				c-0.096-0.095-0.144-0.202-0.144-0.319v-7.5c0-0.704-0.082-1.183-0.252-1.44c-0.167-0.256-0.508-0.385-1.021-0.385
				c-0.205,0-0.45,0.052-0.734,0.154c-0.286,0.103-0.598,0.241-0.932,0.417v8.753c0,0.118-0.046,0.224-0.133,0.319
				c-0.088,0.095-0.19,0.143-0.308,0.143h-2.654c-0.117,0-0.224-0.047-0.318-0.142c-0.096-0.096-0.143-0.202-0.143-0.319V16.396
				c0-0.117,0.043-0.22,0.131-0.308s0.19-0.131,0.308-0.131h2.502c0.117,0,0.22,0.043,0.307,0.13
				c0.088,0.086,0.132,0.188,0.132,0.305v0.479c0.468-0.305,0.965-0.563,1.493-0.773c0.526-0.211,1.112-0.316,1.755-0.316
				c0.584,0,1.086,0.084,1.503,0.252c0.416,0.168,0.779,0.443,1.086,0.823c0.322-0.175,0.622-0.332,0.899-0.472
				c0.278-0.139,0.557-0.252,0.834-0.34c0.279-0.087,0.567-0.153,0.867-0.197c0.301-0.044,0.625-0.066,0.977-0.066
				c0.731,0,1.339,0.117,1.822,0.351c0.482,0.234,0.867,0.559,1.152,0.977c0.284,0.416,0.489,0.921,0.614,1.514
				c0.124,0.592,0.187,1.248,0.187,1.964v7.483C113.996,28.188,113.947,28.294,113.853,28.39z"/>
		</g>
	</g>
	<g>
		
			<image overflow="visible" opacity="0.57" width="30" height="32" xlink:href="A3163647.png"  transform="matrix(1 0 0 1 107.5 8.5)">
		</image>
		<g>
			<path fill="#48B576" d="M125.203,23.353h-7.001v0.043c0,0.304,0.036,0.601,0.108,0.892c0.073,0.29,0.198,0.543,0.375,0.761
				c0.174,0.218,0.405,0.392,0.69,0.522s0.646,0.196,1.086,0.196c0.352,0,0.725-0.007,1.119-0.022
				c0.395-0.014,0.787-0.029,1.175-0.043c0.388-0.014,0.749-0.036,1.085-0.065c0.338-0.03,0.615-0.052,0.835-0.067h0.064
				c0.279,0,0.418,0.118,0.418,0.352v1.68c0,0.177-0.029,0.31-0.088,0.398c-0.059,0.088-0.184,0.155-0.373,0.199
				c-0.702,0.177-1.391,0.31-2.063,0.398c-0.673,0.088-1.484,0.132-2.436,0.132c-0.66,0-1.317-0.095-1.976-0.286
				c-0.658-0.189-1.25-0.504-1.777-0.943s-0.951-1.021-1.272-1.745c-0.322-0.724-0.482-1.613-0.482-2.666v-1.537
				c0-0.878,0.124-1.675,0.373-2.392c0.249-0.717,0.609-1.324,1.085-1.821c0.476-0.497,1.058-0.882,1.745-1.152
				c0.688-0.271,1.47-0.406,2.348-0.406c0.908,0,1.697,0.146,2.371,0.439c0.672,0.292,1.235,0.695,1.689,1.207
				c0.452,0.512,0.793,1.119,1.02,1.821c0.228,0.703,0.341,1.471,0.341,2.305v1.272C125.663,23.177,125.51,23.353,125.203,23.353z
				 M122.194,21.07c0-0.819-0.173-1.43-0.525-1.832c-0.351-0.403-0.834-0.604-1.448-0.604s-1.104,0.206-1.471,0.614
				c-0.366,0.41-0.548,1.018-0.548,1.822v0.087h3.992V21.07z"/>
		</g>
	</g>
</g>
<g id="ICON">
	<g>
		
			<image overflow="visible" opacity="0.57" width="81" height="54" xlink:href="A3163644.png"  transform="matrix(1 0 0 1 -2.5 -5.5)">
		</image>
		<g>
			<g>
				<g>
					<path fill="#FFFFFF" d="M16.522,9.445l5.25-0.468l0.179,2.004c0.078,0.876,0.853,1.523,1.728,1.445s1.522-0.851,1.443-1.728
						l-0.626-7.03c-0.078-0.876-0.852-1.522-1.728-1.444c-0.875,0.078-1.522,0.851-1.444,1.727l0.214,2.402l-5.25,0.468
						L16.522,9.445z"/>
					<path fill="#FFFFFF" d="M33.712,14.876c0,0-1.312,0.525-2.495,1.659l1.229,13.799c0.122,1.358-0.881,2.557-2.239,2.679
						l-18.302,1.632c-1.358,0.122-2.558-0.882-2.68-2.24L7.472,12.731c-0.12-1.358,0.882-2.558,2.24-2.679l2.85-0.254l0.179,2.004
						c0.078,0.876,0.852,1.523,1.729,1.445c0.875-0.078,1.522-0.851,1.443-1.728L15.286,4.49c-0.078-0.876-0.853-1.522-1.728-1.445
						c-0.876,0.079-1.523,0.852-1.445,1.728l0.214,2.402L9.479,7.429c-2.803,0.25-4.88,2.734-4.63,5.536l1.755,19.674
						c0.25,2.803,2.732,4.879,5.536,4.629l18.301-1.632c2.802-0.25,4.88-2.733,4.63-5.535L33.712,14.876z"/>
					<path fill="#FFFFFF" d="M13.871,18.078c-0.659,0.49-0.797,1.422-0.307,2.081l5.656,7.612c0.311,0.418,0.813,0.64,1.326,0.594
						c0.033-0.003,0.064-0.006,0.099-0.011c0.547-0.086,0.999-0.468,1.177-0.991c0.049-0.142,4.898-13.938,18.745-15.477
						l-0.264-2.965c-2.439,0.265-4.771,0.883-6.959,1.836l-0.029-0.332c-0.25-2.802-2.733-4.879-5.536-4.629l-2.281,0.204
						l0.234,2.623l2.281-0.204c1.358-0.121,2.558,0.882,2.678,2.24l0.124,1.387c-2.619,1.536-4.994,3.597-7.062,6.15
						c-1.723,2.128-2.918,4.204-3.679,5.738c0,0-0.39,0.955-0.662,1.861l-0.016-0.822l0.391-1.427l-3.836-5.163
						C15.463,17.726,14.531,17.588,13.871,18.078z"/>
				</g>
				<polygon fill-rule="evenodd" clip-rule="evenodd" fill="#FFFFFF" points="58.511,7.273 42.095,9.345 42.051,8.855 58.436,6.418 
					58.363,5.707 40.772,8.317 41.126,12.275 58.9,11.732 				"/>
				<path fill-rule="evenodd" clip-rule="evenodd" fill="#FFFFFF" d="M66.862,7.944c-0.22-2.474-2.404-4.3-4.878-4.08
					c-1.121,0.1-2.108,0.604-2.833,1.354l0.604,6.773c0.846,0.61,1.906,0.932,3.027,0.832C65.257,12.603,67.084,10.418,66.862,7.944
					z M65.967,8.654c-0.207-2.323-2.259-4.039-4.582-3.831c-0.27,0.023-0.531,0.075-0.782,0.146
					c0.425-0.216,0.897-0.358,1.401-0.403c2.123-0.189,3.998,1.378,4.188,3.501c0.061,0.675-0.06,1.325-0.315,1.904
					C65.973,9.551,66.007,9.108,65.967,8.654z"/>
			</g>
		</g>
	</g>
</g>
</svg>
